<svg width="16" height="21" viewBox="0 0 16 21" fill="none" xmlns="http://www.w3.org/2000/svg">
<path d="M10.8359 7.34766V5.5C10.8359 4.72656 10.5495 4.06771 9.97656 3.52344C9.43229 2.95052 8.77344 2.66406 8 2.66406C7.22656 2.66406 6.55339 2.95052 5.98047 3.52344C5.4362 4.06771 5.16406 4.72656 5.16406 5.5V7.34766H10.8359ZM6.71094 15.0391C7.08333 15.4115 7.51302 15.5977 8 15.5977C8.48698 15.5977 8.91667 15.4115 9.28906 15.0391C9.66146 14.6667 9.84766 14.237 9.84766 13.75C9.84766 13.263 9.66146 12.8333 9.28906 12.4609C8.91667 12.0885 8.48698 11.9023 8 11.9023C7.51302 11.9023 7.08333 12.0885 6.71094 12.4609C6.33854 12.8333 6.15234 13.263 6.15234 13.75C6.15234 14.237 6.33854 14.6667 6.71094 15.0391ZM13.5 7.34766C13.987 7.34766 14.4167 7.53385 14.7891 7.90625C15.1615 8.25 15.3477 8.66536 15.3477 9.15234V18.3477C15.3477 18.8346 15.1615 19.2643 14.7891 19.6367C14.4167 19.9805 13.987 20.1523 13.5 20.1523H2.5C2.01302 20.1523 1.58333 19.9805 1.21094 19.6367C0.838542 19.2643 0.652344 18.8346 0.652344 18.3477V9.15234C0.652344 8.66536 0.838542 8.25 1.21094 7.90625C1.58333 7.53385 2.01302 7.34766 2.5 7.34766H3.40234V5.5C3.40234 4.23958 3.84635 3.16536 4.73438 2.27734C5.65104 1.36068 6.73958 0.902344 8 0.902344C9.26042 0.902344 10.3346 1.36068 11.2227 2.27734C12.1393 3.16536 12.5977 4.23958 12.5977 5.5V7.34766H13.5Z" fill="black"/>
</svg>